<svg xmlns="http://www.w3.org/2000/svg" xmlns:xlink="http://www.w3.org/1999/xlink" width="1920" zoomAndPan="magnify" viewBox="0 0 1440 809.999993" height="1080" preserveAspectRatio="xMidYMid meet" version="1.0"><defs><clipPath id="cb6d9a9b8f"><path d="M 399.5625 684 L 1040.8125 684 L 1040.8125 737.597656 L 399.5625 737.597656 Z M 399.5625 684 " clip-rule="nonzero"/></clipPath><clipPath id="22f85db88f"><path d="M 422 55.097656 L 1019 55.097656 L 1019 272 L 422 272 Z M 422 55.097656 " clip-rule="nonzero"/></clipPath><clipPath id="2859a411af"><path d="M 400 577.175781 L 668 577.175781 L 668 809.675781 L 400 809.675781 Z M 400 577.175781 " clip-rule="nonzero"/></clipPath></defs><rect x="-144" width="1728" fill="#ffffff" y="-80.999999" height="971.999992" fill-opacity="1"/><rect x="-144" width="1728" fill="#ffffff" y="-80.999999" height="971.999992" fill-opacity="1"/><rect x="-144" width="1728" fill="#6c9367" y="-80.999999" height="971.999992" fill-opacity="1"/><path fill="#5b785a" d="M 720 -23.679688 L 1452.75 -23.679688 L 1452.75 826.0625 L 720 826.0625 L 720 -23.679688 " fill-opacity="1" fill-rule="nonzero"/><path fill="#e5e5e5" d="M 978.902344 323.839844 L 884.996094 323.839844 L 884.996094 633.847656 L 978.902344 633.847656 L 978.902344 323.839844 " fill-opacity="1" fill-rule="nonzero"/><path fill="#e5e5e5" d="M 768.863281 323.839844 L 674.964844 323.839844 L 674.964844 633.847656 L 768.863281 633.847656 L 768.863281 323.839844 " fill-opacity="1" fill-rule="nonzero"/><path fill="#e5e5e5" d="M 558.824219 323.839844 L 464.925781 323.839844 L 464.925781 633.847656 L 558.824219 633.847656 L 558.824219 323.839844 " fill-opacity="1" fill-rule="nonzero"/><path fill="#3b553a" d="M 545.566406 633.847656 L 538.863281 633.847656 L 538.863281 323.839844 L 545.566406 323.839844 L 545.566406 633.847656 " fill-opacity="1" fill-rule="nonzero"/><path fill="#3b553a" d="M 484.90625 633.847656 L 478.199219 633.847656 L 478.199219 323.839844 L 484.90625 323.839844 L 484.90625 633.847656 " fill-opacity="1" fill-rule="nonzero"/><path fill="#3b553a" d="M 515.234375 614.886719 L 508.523438 614.886719 L 508.523438 358.109375 L 515.234375 358.109375 L 515.234375 614.886719 " fill-opacity="1" fill-rule="nonzero"/><path fill="#3b553a" d="M 755.589844 629.875 L 748.875 629.875 L 748.875 319.867188 L 755.589844 319.867188 L 755.589844 629.875 " fill-opacity="1" fill-rule="nonzero"/><path fill="#3b553a" d="M 694.933594 629.875 L 688.230469 629.875 L 688.230469 319.867188 L 694.933594 319.867188 L 694.933594 629.875 " fill-opacity="1" fill-rule="nonzero"/><path fill="#3b553a" d="M 725.265625 610.921875 L 718.554688 610.921875 L 718.554688 354.144531 L 725.265625 354.144531 L 725.265625 610.921875 " fill-opacity="1" fill-rule="nonzero"/><path fill="#3b553a" d="M 965.628906 633.847656 L 958.921875 633.847656 L 958.921875 323.839844 L 965.628906 323.839844 L 965.628906 633.847656 " fill-opacity="1" fill-rule="nonzero"/><path fill="#3b553a" d="M 904.972656 633.847656 L 898.261719 633.847656 L 898.261719 323.839844 L 904.972656 323.839844 L 904.972656 633.847656 " fill-opacity="1" fill-rule="nonzero"/><path fill="#3b553a" d="M 935.296875 614.886719 L 928.59375 614.886719 L 928.59375 358.109375 L 935.296875 358.109375 L 935.296875 614.886719 " fill-opacity="1" fill-rule="nonzero"/><path fill="#3b553a" d="M 569.027344 319.867188 L 454.738281 319.867188 L 454.738281 372 L 569.027344 372 L 569.027344 319.867188 " fill-opacity="1" fill-rule="nonzero"/><path fill="#3b553a" d="M 569.027344 601.546875 L 454.738281 601.546875 L 454.738281 653.6875 L 569.027344 653.6875 L 569.027344 601.546875 " fill-opacity="1" fill-rule="nonzero"/><path fill="#3b553a" d="M 777.324219 319.867188 L 663.042969 319.867188 L 663.042969 372 L 777.324219 372 L 777.324219 319.867188 " fill-opacity="1" fill-rule="nonzero"/><path fill="#3b553a" d="M 777.324219 601.546875 L 663.042969 601.546875 L 663.042969 653.6875 L 777.324219 653.6875 L 777.324219 601.546875 " fill-opacity="1" fill-rule="nonzero"/><path fill="#3b553a" d="M 989.097656 319.867188 L 874.800781 319.867188 L 874.800781 372 L 989.097656 372 L 989.097656 319.867188 " fill-opacity="1" fill-rule="nonzero"/><path fill="#3b553a" d="M 989.097656 601.546875 L 874.800781 601.546875 L 874.800781 653.6875 L 989.097656 653.6875 L 989.097656 601.546875 " fill-opacity="1" fill-rule="nonzero"/><g clip-path="url(#cb6d9a9b8f)"><path fill="#e5e5e5" d="M 1040.65625 737.640625 L 399.703125 737.640625 L 399.703125 684.605469 L 1040.65625 684.605469 L 1040.65625 737.640625 " fill-opacity="1" fill-rule="nonzero"/></g><path fill="#a6a6a6" d="M 997.558594 684.605469 L 442.816406 684.605469 L 442.816406 631.582031 L 997.558594 631.582031 L 997.558594 684.605469 " fill-opacity="1" fill-rule="nonzero"/><path fill="#e5e5e5" d="M 993.707031 340.609375 L 446.671875 340.609375 L 446.671875 302.539062 L 993.707031 302.539062 L 993.707031 340.609375 " fill-opacity="1" fill-rule="nonzero"/><path fill="#a6a6a6" d="M 1018.351562 271.257812 L 422.015625 271.257812 L 422.015625 302.539062 L 1018.351562 302.539062 L 1018.351562 271.257812 " fill-opacity="1" fill-rule="nonzero"/><g clip-path="url(#22f85db88f)"><path fill="#e5e5e5" d="M 1018.351562 271.257812 L 422.015625 271.257812 L 720.179688 55.0625 Z M 1018.351562 271.257812 " fill-opacity="1" fill-rule="nonzero"/></g><path fill="#5b785a" d="M 948.390625 271.257812 L 491.984375 271.257812 L 720.179688 105.800781 Z M 948.390625 271.257812 " fill-opacity="1" fill-rule="nonzero"/><path fill="#3b553a" d="M 923.449219 271.257812 L 516.925781 271.257812 L 720.179688 123.882812 Z M 923.449219 271.257812 " fill-opacity="1" fill-rule="nonzero"/><path fill="#e5e5e5" d="M 723.550781 252.683594 C 729.757812 251.519531 734.476562 249.441406 737.6875 246.460938 C 740.890625 243.464844 742.5 239.648438 742.5 235.003906 C 742.5 231.121094 740.890625 227.542969 737.6875 224.242188 C 734.476562 220.953125 729.757812 218.09375 723.550781 215.648438 Z M 715.40625 187.257812 L 715.40625 156.113281 C 710.371094 157.164062 706.527344 158.90625 703.90625 161.351562 C 701.269531 163.789062 699.945312 166.792969 699.945312 170.40625 C 699.945312 173.441406 701.269531 176.40625 703.90625 179.285156 C 706.527344 182.160156 710.371094 184.820312 715.40625 187.257812 Z M 715.078125 286.894531 L 715.078125 261.410156 C 704.710938 260.300781 696.683594 257.683594 690.976562 253.554688 C 685.265625 249.433594 682.421875 244.222656 682.421875 237.902344 C 682.421875 234.09375 683.566406 230.980469 685.867188 228.609375 C 688.15625 226.230469 691.148438 225.03125 694.804688 225.03125 C 698.230469 225.03125 700.964844 226.050781 702.976562 228.066406 C 705.007812 230.085938 706.027344 232.8125 706.027344 236.25 C 706.027344 237.628906 705.828125 238.878906 705.433594 239.976562 C 705.039062 241.09375 704.433594 242.054688 703.609375 242.890625 C 702.996094 243.433594 702.082031 243.992188 700.859375 244.550781 C 699.652344 245.109375 699.035156 245.683594 699.035156 246.289062 C 699.035156 248.167969 700.539062 249.769531 703.5625 251.066406 C 706.585938 252.363281 710.429688 253.019531 715.078125 253.019531 L 715.078125 212.25 L 708.925781 209.34375 C 700.441406 205.578125 694.21875 201.167969 690.226562 196.136719 C 686.234375 191.097656 684.246094 185.179688 684.246094 178.367188 C 684.246094 170.234375 686.925781 163.519531 692.304688 158.234375 C 697.679688 152.945312 705.269531 149.589844 715.078125 148.144531 L 715.078125 136.023438 L 723.722656 136.023438 L 723.804688 148.144531 C 733.71875 148.589844 741.464844 150.761719 747.027344 154.664062 C 752.597656 158.570312 755.382812 163.757812 755.382812 170.234375 C 755.382812 173.722656 754.339844 176.570312 752.269531 178.785156 C 750.191406 181.003906 747.488281 182.109375 744.160156 182.109375 C 740.496094 182.109375 737.582031 181.199219 735.386719 179.367188 C 733.210938 177.539062 732.117188 175.132812 732.117188 172.144531 C 732.117188 169.824219 733.003906 167.574219 734.8125 165.414062 C 736.609375 163.257812 737.507812 161.785156 737.507812 161.015625 C 737.507812 159.359375 736.4375 157.988281 734.277344 156.910156 C 732.117188 155.828125 729.292969 155.292969 725.792969 155.292969 L 723.722656 155.292969 L 723.722656 190.335938 L 728.199219 192.648438 C 729.199219 193.207031 730.835938 194.011719 733.113281 195.0625 C 740.316406 198.273438 745.6875 201.5625 749.238281 204.9375 C 752.113281 207.65625 754.289062 210.863281 755.753906 214.574219 C 757.214844 218.285156 757.953125 222.429688 757.953125 227.027344 C 757.953125 236.496094 754.988281 244.207031 749.066406 250.15625 C 743.140625 256.105469 734.6875 259.859375 723.722656 261.410156 L 723.722656 286.894531 L 715.078125 286.894531 " fill-opacity="1" fill-rule="nonzero"/><g clip-path="url(#2859a411af)"><path fill="#6c9367" d="M 437.457031 627.648438 C 436.457031 632.804688 437.355469 637.492188 437.375 642.148438 C 436.511719 648.644531 436.324219 660.332031 429.0625 662.757812 C 426.238281 663.53125 425.613281 666.113281 424.78125 668.539062 C 419.738281 666.675781 415.21875 662.800781 408.6875 667.351562 C 414.882812 667.214844 419.613281 668.964844 423.507812 671.902344 C 431.582031 676.882812 440 682.984375 449.613281 683.691406 C 456.8125 683.878906 464.199219 683.484375 471.167969 685.621094 C 479.261719 688.421875 479.648438 689.121094 477.46875 697.273438 C 477.011719 699.003906 476.199219 700.972656 477.03125 702.417969 C 480.867188 711.210938 470.992188 722.957031 475.460938 734.113281 C 476.011719 735.820312 475.792969 737.207031 473.667969 737.632812 C 466.242188 739.601562 476.667969 746.609375 472.242188 751.234375 C 469.5 754.484375 465.085938 759.714844 460.386719 758.140625 C 452.261719 753.058594 441.875 759.871094 434.90625 752.421875 C 428.832031 746.078125 426.5 754.601562 421.488281 753.464844 C 412.507812 752.414062 407.59375 768.753906 400.339844 773.066406 C 400.601562 773.378906 400.851562 773.691406 401.113281 774.003906 C 404.371094 771.640625 408.101562 769.710938 410.820312 766.835938 C 420.914062 755.128906 433.820312 764.617188 446.207031 763.953125 C 451.738281 762.785156 456.34375 766.359375 461.699219 766.109375 C 466.53125 765.453125 470.929688 767.390625 475.5 768.179688 C 478.179688 768.648438 479.65625 771.210938 480.804688 773.273438 C 482.804688 776.898438 485.136719 779.667969 489.324219 780.636719 C 493.574219 782.480469 495.792969 787.417969 499.835938 789.84375 C 500.910156 790.636719 502.160156 791.6875 502.523438 792.863281 C 504.378906 798.917969 510.222656 802.207031 512.667969 807.832031 C 513.242188 809.144531 513.972656 809.695312 515.566406 808.007812 C 516.835938 806.644531 519.503906 809.183594 521.804688 807.75 C 516.410156 804.164062 509.347656 802.550781 508.535156 794.6875 C 507.117188 789.210938 501.910156 785.492188 499.085938 780.679688 C 491.324219 771.085938 486.59375 779.417969 480.761719 764.222656 C 480.085938 763.058594 480.960938 761.933594 481.625 760.996094 C 487.355469 753.039062 486.5625 744.445312 484.167969 735.695312 C 481.03125 725.792969 492.492188 726.300781 492.417969 715.875 C 493.722656 704.480469 505.511719 710.429688 516.074219 707.042969 C 520.335938 705.792969 521.074219 706.667969 521.542969 711.117188 C 521.742188 718.242188 522.546875 725.980469 531.628906 724.75 C 533.328125 724.65625 533.960938 725.40625 534.671875 726.78125 C 539.410156 735.90625 546.765625 742.308594 555.816406 746.945312 C 559.964844 750.265625 564.285156 754.382812 567.214844 758.734375 C 570.496094 764.128906 573.308594 770.078125 573.609375 776.699219 C 574.265625 785.710938 583.820312 790.960938 592.121094 790.917969 C 585.109375 788.15625 576.246094 785.855469 575.785156 776.898438 C 575.109375 769.316406 571.035156 763.015625 568.515625 756.121094 C 567.035156 752.359375 561.984375 753.070312 561.734375 748.195312 C 564.527344 746.828125 566.878906 749.402344 569.402344 749.195312 C 572.972656 748.882812 574.003906 751.527344 575.308594 753.902344 C 579.964844 761.621094 589.714844 757.953125 598.570312 768.785156 C 600.703125 763.515625 587.695312 757.296875 583.414062 756.683594 C 580.671875 756.234375 578.621094 755.027344 577.402344 752.546875 C 572.371094 742.414062 560.746094 742.214844 551.871094 737.558594 C 540.910156 733.582031 545.316406 720.449219 534.253906 719.949219 C 531.410156 719.5625 526.960938 716.28125 529.953125 713.230469 C 534.359375 707.167969 541.273438 702.378906 543.191406 694.898438 C 544.671875 688.941406 547.367188 683.652344 551.058594 678.746094 C 552.964844 674.703125 557.441406 679.433594 559.359375 675.539062 C 561.277344 671.539062 562.472656 673.214844 588.101562 672.746094 C 592.046875 672.675781 595.652344 671.769531 596.015625 666.800781 C 596.484375 663.28125 602.621094 665.652344 602.695312 660.625 C 602.828125 655.394531 605.945312 651.574219 608.683594 647.59375 C 612.183594 643.625 612.332031 638.292969 614.664062 633.742188 C 616.433594 630.429688 617.652344 627.003906 618.476562 623.328125 C 621.664062 608.609375 634.144531 631.585938 642.476562 620.066406 C 651.207031 611.628906 660.25 602.539062 665.71875 591.621094 C 665.90625 590.925781 669.300781 587.53125 664.300781 588.363281 C 662.8125 586.570312 665.769531 580.550781 666.238281 577.261719 C 661.082031 580.324219 662.070312 585.863281 660.375 590.675781 C 659.5625 594.632812 658.175781 598.101562 654.625 600.507812 C 650.757812 603.714844 648.5 608.621094 645.570312 612.671875 C 641.800781 611.671875 639.507812 614.597656 636.664062 616.046875 C 627.808594 620.109375 620.445312 606.359375 613.769531 619.367188 C 609.082031 626.492188 606.726562 634.230469 604.902344 642.4375 C 603.726562 647.59375 598.496094 645.042969 595.515625 650.40625 C 584.539062 663.582031 558.191406 665.632812 541.929688 665.707031 C 537.816406 665.644531 535.378906 668.007812 536.328125 671.945312 C 538.253906 679.984375 534.835938 687.203125 533.503906 694.742188 C 531.378906 700.222656 526.023438 691.648438 522.503906 692.953125 C 511.660156 694.242188 501.417969 696.378906 490.625 696.578125 C 485.75 696.679688 488.054688 689.890625 487.28125 686.816406 C 487.574219 677.882812 477.117188 682.683594 470.835938 679.039062 C 451.824219 675.558594 454.792969 687.734375 429.71875 671.707031 C 426.3125 669.652344 426 666.027344 429.488281 664.539062 C 434.53125 662.394531 435.664062 658.09375 437.292969 653.644531 C 439.105469 649.449219 441.605469 629.753906 437.457031 627.648438 " fill-opacity="1" fill-rule="nonzero"/></g></svg>