<?xml version="1.0" encoding="iso-8859-1"?>
<!-- Uploaded to: SVG Repo, www.svgrepo.com, Generator: SVG Repo Mixer Tools -->
<svg height="40px" width="40px" version="1.1" id="Capa_1" xmlns="http://www.w3.org/2000/svg" xmlns:xlink="http://www.w3.org/1999/xlink" 
	 viewBox="0 0 329.878 329.878" xml:space="preserve">
<g>
	<g>
		<path style="fill:currentColor;" d="M30.134,162.018c9.869,0,17.901-8.031,17.901-17.901V95.923h212.707l-23.062,30.312
			c-6.271,7.017-6.038,17.829,0.698,24.572c3.377,3.383,7.876,5.245,12.656,5.245c4.797,0,9.302-1.868,12.68-5.263l0.442-0.448
			l48.916-60.868c6.217-6.808,6.223-17.304,0.018-24.118L265.407,5.716l-0.465-0.465C261.565,1.862,257.066,0,252.28,0
			c-4.773,0-9.273,1.862-12.662,5.251c-6.731,6.737-6.963,17.555-0.692,24.578l23.062,30.306H30.134
			c-9.869,0-17.901,8.031-17.901,17.901v66.095C12.233,153.993,20.259,162.018,30.134,162.018z M24.167,78.023
			c0-3.294,2.673-5.967,5.967-5.967h38.785c0.006,0,0.006,0,0.012,0h217.134l-38.003-49.937c-2.333-2.333-2.333-6.11,0-8.443
			c2.339-2.333,6.104-2.333,8.437,0l47.574,59.502c2.333,2.333,2.333,6.11,0,8.443l-48.821,60.749
			c-1.158,1.164-2.691,1.748-4.219,1.748s-3.055-0.585-4.219-1.748c-2.333-2.333-2.333-6.104,0-8.437l38.003-49.943H63.59l0,0
			H36.101v60.128c0,3.294-2.673,5.967-5.967,5.967c-3.294,0-5.967-2.673-5.967-5.967C24.167,144.118,24.167,78.023,24.167,78.023z"
			/>
		<path style="fill:currentColor;" d="M299.747,167.854c-9.869,0-17.901,8.031-17.901,17.901v48.194l-212.707-0.006l23.062-30.306
			c6.271-7.017,6.038-17.835-0.698-24.572c-3.377-3.377-7.876-5.245-12.656-5.245c-4.797,0-9.302,1.868-12.68,5.263l-0.448,0.448
			l-48.916,60.874c-6.217,6.814-6.217,17.304-0.006,24.118l47.681,59.645l0.471,0.465c3.377,3.377,7.876,5.245,12.656,5.245
			c4.773,0,9.267-1.862,12.674-5.257c6.719-6.737,6.951-17.549,0.692-24.572L67.91,269.744l231.849,0.006
			c9.869,0,17.901-8.031,17.901-17.901v-66.095C317.647,175.885,309.616,167.854,299.747,167.854z M305.714,251.85
			c0,3.294-2.667,5.967-5.967,5.967h-38.785c-0.006,0-0.006-0.006-0.012-0.006H43.816l38.003,49.937c2.333,2.339,2.333,6.11,0,8.449
			c-2.339,2.333-6.104,2.333-8.437,0l-47.574-59.508c-2.333-2.333-2.333-6.104,0-8.443l48.821-60.749
			c1.158-1.164,2.691-1.748,4.219-1.748c1.528,0,3.055,0.585,4.219,1.748c2.333,2.333,2.333,6.104,0,8.437l-38.003,49.937h221.228
			v0.006h27.489v-60.122c0-3.3,2.673-5.967,5.967-5.967c3.3,0,5.967,2.667,5.967,5.967
			C305.714,185.755,305.714,251.85,305.714,251.85z"/>
	</g>
</g>
</svg>